<svg xmlns="http://www.w3.org/2000/svg" viewBox="0 0 140 80" role="img" aria-labelledby="title desc">
  <title id="title">Símbolo dourado do infinito</title>
  <desc id="desc">Uma fita dourada metálica formando o símbolo do infinito.</desc>
  <defs>
    <linearGradient id="gold" x1="0" y1="0" x2="0" y2="1">
      <stop offset="0" stop-color="#fff2a8"/>
      <stop offset="0.2" stop-color="#f4cd58"/>
      <stop offset="0.48" stop-color="#a66a13"/>
      <stop offset="0.7" stop-color="#f0c84e"/>
      <stop offset="1" stop-color="#75450d"/>
    </linearGradient>
    <linearGradient id="frontGold" x1="0" y1="0" x2="1" y2="1">
      <stop offset="0" stop-color="#fff3a6"/>
      <stop offset="0.38" stop-color="#e8b936"/>
      <stop offset="0.72" stop-color="#9a5f10"/>
      <stop offset="1" stop-color="#f5d864"/>
    </linearGradient>
    <filter id="shadow" x="-20%" y="-30%" width="140%" height="170%">
      <feDropShadow dx="0" dy="4" stdDeviation="3" flood-color="#050704" flood-opacity=".55"/>
    </filter>
  </defs>
  <g fill="none" stroke-linecap="round" stroke-linejoin="round" filter="url(#shadow)">
    <path d="M10 40C21 12 46 11 70 40c24 29 49 28 60 0-11-28-36-29-60 0-24 29-49 28-60 0Z" stroke="#3d2508" stroke-width="19"/>
    <path d="M10 40C21 12 46 11 70 40c24 29 49 28 60 0-11-28-36-29-60 0-24 29-49 28-60 0Z" stroke="url(#gold)" stroke-width="14"/>
    <path d="M10 37C22 13 46 14 69 42" stroke="#fff5b7" stroke-width="2" opacity=".72"/>
    <path d="M72 38c22-25 46-24 57-1" stroke="#fff5b7" stroke-width="2" opacity=".58"/>
    <path d="M55 22c5 4 10 10 15 18 5 8 10 14 15 18" stroke="#4b2c08" stroke-width="19"/>
    <path d="M55 22c5 4 10 10 15 18 5 8 10 14 15 18" stroke="url(#frontGold)" stroke-width="14"/>
    <path d="M56 19c6 5 11 11 16 19" stroke="#fff6b9" stroke-width="2.2" opacity=".8"/>
  </g>
</svg>
